<svg width="202" height="73" viewBox="0 0 202 73" fill="none" xmlns="http://www.w3.org/2000/svg">
<path d="M9.33438 11C9.82419 11 10.3599 11.0077 10.9263 11.0153C11.4926 11.023 12.0589 11.0612 12.6176 11.1148C13.1763 11.1684 13.6967 11.2526 14.1789 11.3597C14.661 11.4668 15.0743 11.6276 15.4187 11.8419C16.1687 12.2934 16.8039 12.9133 17.332 13.7092C17.8601 14.5052 18.1203 15.4771 18.1203 16.6404C18.1203 17.865 17.8218 18.9211 17.2325 19.8089C16.6432 20.6967 15.8014 21.3625 14.707 21.7834V21.8446C16.1228 22.1431 17.2096 22.786 17.9596 23.7733C18.7096 24.7605 19.0846 25.9621 19.0846 27.3779C19.0846 28.2121 18.9316 29.031 18.6331 29.827C18.3346 30.6229 17.8907 31.327 17.2938 31.9316C16.7045 32.5439 15.9774 33.0337 15.1049 33.4087C14.2325 33.7837 13.2299 33.975 12.0972 33.975H1V11H9.33438ZM10.1686 20.8803C11.9059 20.8803 13.1534 20.5742 13.9187 19.9619C14.6763 19.3497 15.059 18.4313 15.059 17.2144C15.059 16.3955 14.9289 15.7527 14.6763 15.2858C14.4161 14.8113 14.0641 14.4516 13.6125 14.1914C13.161 13.9312 12.6406 13.7705 12.0513 13.6939C11.462 13.6174 10.8344 13.5791 10.1686 13.5791H4.05364V20.8803H10.1686ZM11.7145 31.4036C13.0692 31.4036 14.1253 31.0362 14.883 30.3091C15.6407 29.5821 16.0233 28.5719 16.0233 27.2861C16.0233 26.5361 15.8856 25.9162 15.6024 25.4187C15.3192 24.9213 14.9519 24.5309 14.4927 24.2401C14.0335 23.9493 13.4977 23.7503 12.9008 23.6279C12.2962 23.5131 11.6763 23.4518 11.0334 23.4518H4.05364V31.4036H11.7145Z" fill="white"/>
<path d="M39.0375 32.2837C37.4686 33.7531 35.2415 34.4878 32.3409 34.4878C29.3791 34.4878 27.0678 33.7837 25.4071 32.3832C23.7463 30.975 22.9121 28.7402 22.9121 25.6713V11H25.9658V25.6713C25.9658 27.73 26.5091 29.2913 27.6035 30.3551C28.698 31.4189 30.2745 31.9469 32.3333 31.9469C34.2848 31.9469 35.7696 31.4189 36.7874 30.3551C37.8053 29.2913 38.3181 27.73 38.3181 25.6713V11H41.3717V25.6713C41.387 28.6101 40.5988 30.8143 39.0375 32.2837Z" fill="white"/>
<path d="M57.0829 11C59.2717 11 60.9784 11.5357 62.2182 12.6072C63.4504 13.6786 64.0703 15.1481 64.0703 17.0155C64.0703 18.4083 63.7565 19.6329 63.1213 20.6814C62.4861 21.7298 61.4759 22.4493 60.083 22.8396V22.9008C60.7488 23.0309 61.2922 23.2452 61.7055 23.5437C62.1264 23.8421 62.4555 24.2018 62.7004 24.6228C62.9453 25.0437 63.129 25.5106 63.2438 26.0233C63.3586 26.5361 63.4504 27.0718 63.5193 27.6305C63.5652 28.1892 63.5958 28.7555 63.6188 29.3372C63.6417 29.9188 63.6953 30.4852 63.7795 31.0438C63.8637 31.6025 63.9861 32.1306 64.1469 32.6357C64.3076 33.1408 64.5525 33.5847 64.8739 33.975H61.4606C61.2463 33.7378 61.1009 33.4164 61.0243 33.0107C60.9478 32.6051 60.9019 32.1459 60.8789 31.6408C60.856 31.1357 60.833 30.5923 60.8177 30.0183C60.7947 29.4367 60.7335 28.8703 60.6264 28.3116C60.5422 27.753 60.435 27.2249 60.3049 26.7198C60.1748 26.2147 59.9758 25.7784 59.6927 25.4034C59.4171 25.0284 59.0498 24.7299 58.5983 24.5003C58.1467 24.2784 57.5498 24.1636 56.7997 24.1636H49.3378V33.975H46.2842V11H57.0829ZM57.7334 21.4237C58.3763 21.3166 58.9426 21.1099 59.4248 20.7962C59.907 20.4824 60.2896 20.0691 60.5804 19.541C60.8713 19.0129 61.0167 18.3318 61.0167 17.4976C61.0167 16.342 60.6952 15.393 60.0524 14.6659C59.4095 13.9388 58.3687 13.5715 56.9298 13.5715H49.3378V21.5844H55.713C56.4094 21.5844 57.0829 21.5309 57.7334 21.4237Z" fill="white"/>
<path d="M72.5654 11L79.8054 30.3091L87.0759 11H91.2623V33.975H88.3693V14.8649H88.3081L81.1294 33.975H78.5196L71.3409 14.8649H71.2796V33.975H68.3867V11H72.5654Z" fill="white"/>
<path d="M105.964 11L114.941 33.975H111.559L109.048 27.0565H99.3288L96.7573 33.975H93.6348L102.589 11H105.964ZM108.092 24.485L104.265 13.7705H104.204L100.308 24.485H108.092Z" fill="white"/>
<path d="M120.414 11L132.514 29.628H132.575V11H135.468V33.975H132.123L120.123 15.5384H120.062V33.975H117.169V11H120.414Z" fill="white"/>
<path d="M4.05364 39.4551V49.3354H16.1534V39.4551H19.2071V62.4301H16.1534V51.9069H4.05364V62.4301H1V39.4551H4.05364Z" fill="white"/>
<path d="M23.638 46.4199C24.0972 44.9735 24.7937 43.6877 25.712 42.578C26.6381 41.4606 27.7784 40.5729 29.156 39.907C30.5259 39.2412 32.1255 38.9121 33.9469 38.9121C35.7684 38.9121 37.3679 39.2489 38.7379 39.907C40.1078 40.5729 41.2558 41.4606 42.1818 42.578C43.1002 43.6954 43.7967 44.9735 44.2559 46.4199C44.715 47.8664 44.9446 49.3741 44.9446 50.943C44.9446 52.5119 44.715 54.012 44.2559 55.4661C43.7967 56.9125 43.1002 58.1983 42.1818 59.308C41.2558 60.4254 40.1078 61.3055 38.7379 61.9637C37.3679 62.6142 35.7684 62.9433 33.9469 62.9433C32.1255 62.9433 30.5259 62.6142 29.156 61.9637C27.7861 61.3055 26.6381 60.4254 25.712 59.308C24.786 58.1906 24.0972 56.9125 23.638 55.4661C23.1788 54.0196 22.9492 52.5119 22.9492 50.943C22.9492 49.3741 23.1788 47.8741 23.638 46.4199ZM26.4544 54.3717C26.7529 55.4967 27.2274 56.5146 27.8703 57.41C28.5131 58.3131 29.3397 59.0325 30.3499 59.5835C31.3601 60.1269 32.5617 60.4024 33.9546 60.4024C35.3475 60.4024 36.549 60.1269 37.5593 59.5835C38.5695 59.0401 39.396 58.3131 40.0389 57.41C40.6818 56.5069 41.1563 55.4967 41.4548 54.3717C41.7532 53.2466 41.9063 52.1063 41.9063 50.943C41.9063 49.7797 41.7532 48.6394 41.4548 47.5144C41.1563 46.3893 40.6818 45.3714 40.0389 44.476C39.396 43.5729 38.5695 42.8535 37.5593 42.3025C36.549 41.7591 35.3475 41.4836 33.9546 41.4836C32.5617 41.4836 31.3601 41.7591 30.3499 42.3025C29.3397 42.8459 28.5131 43.5729 27.8703 44.476C27.2274 45.3791 26.7529 46.3893 26.4544 47.5144C26.1559 48.6394 26.0029 49.7797 26.0029 50.943C26.0029 52.1063 26.1559 53.2466 26.4544 54.3717Z" fill="white"/>
<path d="M60.1895 42.5933C59.1716 41.851 57.8705 41.4836 56.2787 41.4836C55.6358 41.4836 55.0006 41.5448 54.3806 41.6749C53.7607 41.805 53.2021 42.0193 52.7199 42.3178C52.2377 42.6163 51.8474 43.0219 51.5643 43.527C51.2734 44.0321 51.128 44.6597 51.128 45.4097C51.128 46.1138 51.3347 46.6955 51.7556 47.1317C52.1765 47.5679 52.7352 47.9276 53.4316 48.2108C54.1281 48.4863 54.9164 48.7236 55.7965 48.8996C56.6766 49.0756 57.5721 49.2823 58.4828 49.4965C59.3935 49.7108 60.289 49.9634 61.1691 50.2542C62.0492 50.545 62.8375 50.9354 63.5339 51.4252C64.2304 51.9226 64.7891 52.5425 65.21 53.2926C65.6309 54.0426 65.8376 54.9839 65.8376 56.1243C65.8376 57.3488 65.562 58.3896 65.0187 59.2621C64.4753 60.1346 63.7712 60.8387 62.914 61.3897C62.0569 61.9407 61.0925 62.331 60.0364 62.5836C58.9726 62.8285 57.9164 62.9509 56.868 62.9509C55.5822 62.9509 54.3653 62.7902 53.2174 62.4688C52.0694 62.1474 51.0591 61.6575 50.1943 61.007C49.3295 60.3565 48.6407 59.5146 48.1356 58.4968C47.6305 57.4789 47.3779 56.2697 47.3779 54.8768H50.2709C50.2709 55.8411 50.4622 56.6753 50.8372 57.3717C51.2122 58.0682 51.7097 58.6422 52.3143 59.0937C52.9265 59.5453 53.6383 59.8743 54.4572 60.0886C55.2684 60.3029 56.1103 60.4101 56.9674 60.4101C57.6562 60.4101 58.345 60.3488 59.0415 60.2187C59.7379 60.0886 60.3655 59.8667 60.9242 59.5606C61.4829 59.2468 61.9344 58.8259 62.2788 58.2901C62.6232 57.7544 62.7916 57.0656 62.7916 56.2314C62.7916 55.4355 62.5849 54.7926 62.164 54.3028C61.7431 53.813 61.1844 53.4074 60.4879 53.0936C59.7915 52.7798 59.0032 52.5272 58.1231 52.3359C57.243 52.1446 56.3475 51.9456 55.4368 51.7389C54.5261 51.5323 53.6306 51.3027 52.7505 51.0348C51.8704 50.767 51.0821 50.4149 50.3857 49.971C49.6892 49.5348 49.1305 48.9608 48.7096 48.2644C48.2887 47.5679 48.082 46.6955 48.082 45.6393C48.082 44.4837 48.3193 43.4811 48.7861 42.6316C49.2606 41.7821 49.8882 41.0856 50.6688 40.5422C51.4495 39.9989 52.3449 39.5856 53.3398 39.3177C54.3347 39.0499 55.3603 38.9121 56.4088 38.9121C57.5874 38.9121 58.6818 39.0499 59.692 39.333C60.7022 39.6086 61.5824 40.0524 62.3477 40.6494C63.1054 41.254 63.71 42.004 64.1462 42.9148C64.5824 43.8255 64.8273 44.9123 64.8732 46.1827H61.9803C61.8043 44.5296 61.2073 43.3357 60.1895 42.5933Z" fill="white"/>
<path d="M79.6137 39.4551C81.9326 39.4551 83.6852 40.052 84.8791 41.2383C86.073 42.4245 86.6623 44.1006 86.6623 46.2435C86.6623 48.3864 86.0653 50.0625 84.8791 51.264C83.6852 52.4656 81.9326 53.0549 79.6137 53.0319H72.5956V62.4301H69.542V39.4551H79.6137ZM78.5805 50.4604C80.3178 50.4834 81.5882 50.1314 82.3918 49.3966C83.1954 48.6696 83.601 47.6134 83.601 46.2435C83.601 44.8736 83.1954 43.8251 82.3918 43.1057C81.5882 42.3863 80.3178 42.0266 78.5805 42.0266H72.5956V50.4604H78.5805Z" fill="white"/>
<path d="M93.573 39.4551V62.4301H90.5117V39.4551H93.573Z" fill="white"/>
<path d="M96.2832 42.0266V39.4551H114.659V42.0266H106.998V62.4301H103.944V42.0266H96.2832Z" fill="white"/>
<path d="M123.858 39.4551L132.835 62.4301H129.452L126.942 55.5116H117.222L114.651 62.4301H111.528L120.475 39.4551H123.858ZM125.978 52.9401L122.151 42.2256H122.09L118.194 52.9401H125.978Z" fill="white"/>
<path d="M138.146 39.4551V59.8586H150.307V62.4301H135.085V39.4551H138.146Z" fill="white"/>
<path d="M156.162 39.4551V62.4301H153.101V39.4551H156.162Z" fill="white"/>
<path d="M158.863 42.0266V39.4551H177.239V42.0266H169.578V62.4301H166.524V42.0266H158.863Z" fill="white"/>
<path d="M191.207 62.4301H188.153V53.0319L179.275 39.4551H182.911L189.799 50.3992L196.526 39.4551H200L191.214 53.0319L191.207 62.4301Z" fill="white"/>
</svg>
